<?xml version="1.0" encoding="UTF-8" standalone="no"?>
<svg
   xmlns:dc="http://purl.org/dc/elements/1.1/"
   xmlns:cc="http://creativecommons.org/ns#"
   xmlns:rdf="http://www.w3.org/1999/02/22-rdf-syntax-ns#"
   xmlns:svg="http://www.w3.org/2000/svg"
   xmlns="http://www.w3.org/2000/svg"
   xmlns:sodipodi="http://sodipodi.sourceforge.net/DTD/sodipodi-0.dtd"
   xmlns:inkscape="http://www.inkscape.org/namespaces/inkscape"
   data-v-71f23097=""
   version="1.1"
   x="0px"
   y="0px"
   viewBox="0 0 700 699.99999"
   enable-background="new 0 0 226.7715 104.2209"
   xml:space="preserve"
   class="ico-logo"
   id="svg29"
   sodipodi:docname="melhor-envio-logo.svg"
   width="700"
   height="700"
   inkscape:export-filename="C:\Users\alex\sites\melhor-envio-logo-0.png"
   inkscape:export-xdpi="561.73712"
   inkscape:export-ydpi="561.73712"
   inkscape:version="0.92.3 (2405546, 2018-03-11)"><metadata
     id="metadata35"><rdf:RDF><cc:Work
         rdf:about=""><dc:format>image/svg+xml</dc:format><dc:type
           rdf:resource="http://purl.org/dc/dcmitype/StillImage" /><dc:title></dc:title></cc:Work></rdf:RDF></metadata><defs
     id="defs33" /><sodipodi:namedview
     pagecolor="#ffffff"
     bordercolor="#666666"
     borderopacity="1"
     objecttolerance="10"
     gridtolerance="10"
     guidetolerance="10"
     inkscape:pageopacity="0"
     inkscape:pageshadow="2"
     inkscape:window-width="1600"
     inkscape:window-height="838"
     id="namedview31"
     showgrid="false"
     inkscape:zoom="0.47073817"
     inkscape:cx="-235.88253"
     inkscape:cy="178.32039"
     inkscape:window-x="-8"
     inkscape:window-y="-8"
     inkscape:window-maximized="1"
     inkscape:current-layer="svg29" /><g
     data-v-71f23097=""
     id="melhorenvio"
     style="fill:#00408c;fill-opacity:1"
     transform="matrix(2.304505,0,0,2.304505,88.701929,229.91121)"
     ><path
       data-v-71f23097=""
       d="m 180.0886,16.093 v 6.314 c -3.486,0 -6.313,2.828 -6.313,6.315 v 19.559 h -6.315 V 28.722 c 0,-6.975 5.653,-12.629 12.628,-12.629"
       class="fill-1"
       id="path2"
       style="fill:#a5a5ba;fill-opacity:1"
       inkscape:connector-curvature="0" /><path
       data-v-71f23097=""
       d="m 31.571,16.093 c -3.773,0 -7.157,1.657 -9.471,4.28 -2.314,-2.623 -5.698,-4.28 -9.472,-4.28 C 5.654,16.093 0,21.747 0,28.722 V 48.281 H 6.314 V 28.722 c 0,-3.487 2.828,-6.315 6.314,-6.315 3.487,0 6.315,2.828 6.315,6.315 v 19.559 h 6.314 V 28.722 c 0,-3.487 2.828,-6.315 6.314,-6.315 3.487,0 6.314,2.828 6.314,6.315 V 48.281 H 44.2 V 28.722 c 0,-6.975 -5.654,-12.629 -12.629,-12.629"
       class="fill-1"
       id="path4"
       style="fill:#a5a5ba;fill-opacity:1"
       inkscape:connector-curvature="0" /><path
       data-v-71f23097=""
       d="m 97.2805,48.281 v -6.314 c -3.486,0 -6.314,-2.828 -6.314,-6.315 V 0 h -6.314 v 35.652 c 0,6.975 5.653,12.629 12.628,12.629"
       class="fill-1"
       id="path6"
       style="fill:#a5a5ba;fill-opacity:1"
       inkscape:connector-curvature="0" /><path
       data-v-71f23097=""
       d="m 114.1198,16.093 c -2.301,0 -4.457,0.619 -6.314,1.694 V 0.077 h -6.315 v 28.645 19.559 h 6.315 V 28.722 c 0,-3.487 2.827,-6.315 6.314,-6.315 3.486,0 6.314,2.828 6.314,6.315 v 19.559 h 6.315 V 28.722 c 0,-6.975 -5.654,-12.629 -12.629,-12.629"
       class="fill-1"
       id="path8"
       style="fill:#a5a5ba;fill-opacity:1"
       inkscape:connector-curvature="0" /><path
       data-v-71f23097=""
       d="m 80.128,29.0929 c -1.473,-7.327 -7.943,-12.845 -15.702,-12.845 -7.759,0 -14.23,5.518 -15.702,12.845 -0.205,1.026 -0.314,2.086 -0.314,3.172 0,1.087 0.109,2.148 0.314,3.173 1.474,7.326 7.943,12.843 15.702,12.843 5.282,0 9.965,-2.557 12.882,-6.498 l -5.073,-3.748 c -1.767,2.389 -4.607,3.938 -7.809,3.938 -4.251,0 -7.865,-2.731 -9.179,-6.535 h 24.881 c 0.205,-1.025 0.314,-2.086 0.314,-3.173 0,-1.086 -0.109,-2.146 -0.314,-3.172 m -15.702,-6.537 c 4.251,0 7.865,2.733 9.179,6.537 H 55.247 c 1.314,-3.804 4.928,-6.537 9.179,-6.537"
       class="fill-1"
       id="path10"
       style="fill:#a5a5ba;fill-opacity:1"
       inkscape:connector-curvature="0" /><path
       data-v-71f23097=""
       d="m 147.1559,16.0929 c -8.889,0 -16.094,7.206 -16.094,16.094 0,8.889 7.205,16.094 16.094,16.094 8.889,0 16.094,-7.205 16.094,-16.094 0,-8.888 -7.205,-16.094 -16.094,-16.094 m 0,25.88 c -5.404,0 -9.786,-4.381 -9.786,-9.786 0,-5.404 4.382,-9.786 9.786,-9.786 5.405,0 9.786,4.382 9.786,9.786 0,5.405 -4.381,9.786 -9.786,9.786"
       class="fill-1"
       id="path12"
       style="fill:#a5a5ba;fill-opacity:1"
       inkscape:connector-curvature="0" /><rect
       data-v-71f23097=""
       x="167.2057"
       y="54.877998"
       width="6.3140001"
       height="32.032001"
       class="fill-1"
       id="rect14"
       style="fill:#a5a5ba;fill-opacity:1" /><path
       data-v-71f23097=""
       d="m 97.0241,67.8153 c -1.464,-7.291 -7.903,-12.783 -15.625,-12.783 -7.722,0 -14.161,5.492 -15.625,12.783 -0.206,1.02 -0.313,2.075 -0.313,3.156 0,1.082 0.107,2.138 0.313,3.157 1.465,7.291 7.903,12.782 15.625,12.782 5.256,0 9.917,-2.544 12.819,-6.467 l -5.048,-3.73 c -1.758,2.378 -4.584,3.919 -7.771,3.919 -4.23,0 -7.827,-2.718 -9.134,-6.504 h 24.759 c 0.206,-1.019 0.313,-2.075 0.313,-3.157 0,-1.081 -0.107,-2.136 -0.313,-3.156 m -15.625,-6.506 c 4.23,0 7.827,2.72 9.134,6.506 h -18.268 c 1.307,-3.786 4.904,-6.506 9.134,-6.506"
       class="fill-1"
       id="path16"
       style="fill:#a5a5ba;fill-opacity:1"
       inkscape:connector-curvature="0" /><path
       data-v-71f23097=""
       d="m 114.1198,54.7224 c -6.975,0 -12.629,5.653 -12.629,12.629 v 19.559 h 6.315 v -19.559 c 0,-3.487 2.827,-6.315 6.314,-6.315 3.486,0 6.314,2.828 6.314,6.315 v 19.559 h 6.315 v -19.559 c 0,-6.976 -5.654,-12.629 -12.629,-12.629"
       class="fill-1"
       id="path18"
       style="fill:#a5a5ba;fill-opacity:1"
       inkscape:connector-curvature="0" /><path
       data-v-71f23097=""
       d="m 193.8337,54.7223 c -8.888,0 -16.094,7.206 -16.094,16.094 0,8.889 7.206,16.094 16.094,16.094 8.889,0 16.094,-7.205 16.094,-16.094 0,-8.888 -7.205,-16.094 -16.094,-16.094 m 0,25.88 c -5.404,0 -9.786,-4.381 -9.786,-9.786 0,-5.404 4.382,-9.786 9.786,-9.786 5.405,0 9.786,4.382 9.786,9.786 0,5.405 -4.381,9.786 -9.786,9.786"
       class="fill-1"
       id="path20"
       style="fill:#a5a5ba;fill-opacity:1"
       inkscape:connector-curvature="0" /><polygon
       data-v-71f23097=""
       points="156.2829,55.1208 147.1579,78.0448 138.0309,55.1198 131.0619,55.1208 144.3249,86.9098 149.9919,86.9098 163.2499,55.1208 "
       class="fill-1"
       id="polygon22"
       style="fill:#a5a5ba;fill-opacity:1" /><path
       data-v-71f23097=""
       d="m 180.0886,16.093 v 6.314 c -3.486,0 -6.313,2.828 -6.313,6.315 v 19.559 h -6.315 V 28.722 c 0,-6.975 5.653,-12.629 12.628,-12.629"
       class="fill-1"
       id="path24"
       style="fill:#a5a5ba;fill-opacity:1"
       inkscape:connector-curvature="0" /><path
       data-v-71f23097=""
       d="m 226.738,54.2419 -0.002,-0.029 c -0.144,-1.859 -0.825,-3.639 -2.026,-5.291 l -0.042,-0.056 c -3.365,-4.4 -8.887,-4.795 -13.964,-4.918 2.43,-3.561 5.611,-8.67 5.721,-15.244 0.115,-4.648 -1.312,-8.696 -4.015,-11.4 -0.969,-0.968 -2.217,-1.819 -3.516,-2.396 -1.315,-0.585 -2.645,-0.874 -4.063,-0.884 -2.775,-0.124 -5.548,0.993 -7.624,3.069 -2.141,2.141 -2.807,4.673 -3.395,6.908 l -0.021,0.086 c -0.003,0.013 -0.006,0.025 -0.008,0.037 -0.389,1.672 -1.131,3.24 -2.16,4.613 l -1.487,1.981 -0.478,0.574 -0.093,0.118 c -0.1,0.134 -0.219,0.271 -0.354,0.43 -0.158,0.183 -0.333,0.388 -0.521,0.631 -1.186,1.355 -2.62,2.926 -4.29,4.388 l -0.051,0.045 c -1.615,1.481 -3.39,2.991 -4.943,4.263 v 4.321 2.793 c 0,0 6.278,-4.646 8.882,-7.031 1.948,-1.708 3.561,-3.481 4.883,-4.991 l 0.138,-0.171 c 0.101,-0.135 0.219,-0.272 0.355,-0.43 0.163,-0.191 0.347,-0.406 0.544,-0.664 l 0.482,-0.579 2.027,-2.748 c 1.145,-1.551 2.001,-3.297 2.511,-5.156 0.094,-0.342 0.183,-0.695 0.268,-1.06 0.452,-1.717 0.847,-3.2 1.858,-4.21 0.228,-0.228 0.544,-0.426 0.891,-0.595 0.681,-0.333 2.297,-0.714 3.683,-0.431 1.2,0.245 2.228,1.131 2.333,1.236 1.538,1.537 2.375,4.131 2.301,7.118 l -0.001,0.027 c -0.086,5.359 -3.089,9.71 -5.282,12.888 l -0.26,0.377 c -0.963,1.245 -1.641,2.35 -2.196,3.572 l -1.734,3.815 4.178,0.322 c 0.741,0.057 1.465,0.085 2.166,0.112 0.675,0.026 1.312,0.05 1.941,0.099 l 0.164,0.008 c 4.592,0.095 8.559,0.178 10.449,2.612 0.544,0.757 0.839,1.492 0.899,2.247 0.078,1.186 -0.078,2.335 -0.461,3.417 -0.782,2.098 -0.975,4.464 -0.561,6.848 0.159,1.048 0.159,2.1 0.002,3.045 l -0.008,0.047 c -0.215,1.435 -0.879,2.902 -1.973,4.361 -0.353,0.471 -0.851,1.225 -1.218,2.144 l -0.06,0.162 c -0.301,0.902 -0.466,1.942 -0.466,2.927 0,0.934 -0.452,2.302 -0.856,3.34 -0.383,0.984 -0.905,1.907 -1.552,2.74 -0.532,0.687 -1.199,1.47 -1.733,1.852 l -0.128,0.096 c -0.537,0.43 -1.26,1.091 -1.824,1.904 l -0.107,0.107 -0.166,0.254 c -2.12,3.247 -3.424,5.244 -5.401,6.884 -1.64,1.361 -3.585,2.3 -5.654,2.813 -0.628,0.156 -1.242,0.287 -1.841,0.373 -1.52,0.203 -2.956,0.393 -4.336,0.393 -5.071,0 -10.074,-0.608 -14.871,-1.807 l -0.045,-0.011 c -2.67,-0.623 -6.216,-1.385 -9.964,-1.748 l -2.515,-0.014 -99.218,0.005 c -0.608,0 -0.634,0.902 -0.027,0.938 l 101.333,4.923 c 3.346,0.334 6.579,1.03 9.036,1.603 5.256,1.311 10.73,1.977 16.271,1.977 1.773,0 3.477,-0.227 5.125,-0.447 l 0.027,-0.004 c 0.825,-0.118 2.332,-0.493 3.545,-0.814 1.458,-0.386 2.856,-0.971 4.148,-1.747 4.351,-2.613 6.289,-5.504 9.131,-9.854 l 0.332,-0.456 c 0.064,-0.105 0.283,-0.362 0.634,-0.65 1.736,-1.257 3.152,-2.88 4.214,-4.827 1.51,-2.317 2.308,-5.018 2.308,-7.823 0,-0.319 0.053,-0.698 0.139,-0.99 0.102,-0.229 0.26,-0.494 0.432,-0.724 1.679,-2.238 2.714,-4.588 3.078,-6.987 0.26,-1.575 0.26,-3.224 0.001,-4.905 l -0.01,-0.063 c -0.239,-1.354 -0.139,-2.714 0.279,-3.831 l 0.016,-0.043 c 0.662,-1.853 0.93,-3.809 0.796,-5.814"
       class="fill-2"
       id="path26"
       style="fill:#ffffff;fill-opacity:1"
       inkscape:connector-curvature="0" /></g></svg>
